<svg width="473" height="93" viewBox="0 0 473 93" fill="none" xmlns="http://www.w3.org/2000/svg">
<path d="M28.4059 35.6453C12.6821 51.3922 -0.0955341 64.4186 0.000538235 64.5786C0.224707 64.9627 33.4657 65.0267 33.9461 64.6426C34.3304 64.3546 34.9389 63.1063 36.0277 60.2578C36.1878 59.9057 38.3334 54.4327 40.8313 48.0956C43.3292 41.7584 45.4748 36.2854 45.6349 35.9333C46.0832 34.7811 46.6597 33.3729 46.9479 32.8288C47.108 32.5087 47.2361 32.1246 47.2361 31.9326C47.2361 31.7406 47.5243 31.0044 47.8446 30.2363C48.1648 29.5002 50.2144 24.4112 52.36 18.9702C54.5056 13.4972 56.363 8.85636 56.4911 8.60031C57.4518 6.74397 57.4838 7.92818 57.4838 50.496C57.4838 74.4684 57.6119 93.0638 57.772 92.9998C57.9001 92.9678 58.9569 91.7516 60.0778 90.3433C61.1986 88.9351 62.2554 87.6228 62.4476 87.4308C62.6077 87.2388 66.7708 82.0858 71.6705 76.0047L80.5412 64.8987H97.6741C109.907 64.8987 114.839 64.8026 114.999 64.5466C115.255 64.0985 58.1563 6.96801 57.4838 7.00002C57.2276 7.00002 44.1298 19.8984 28.4059 35.6453Z" fill="#2846EB"/>
<path d="M154.316 43.248C153.817 43.112 153.319 43.0213 152.82 42.976C152.367 42.9307 151.913 42.908 151.46 42.908C149.964 42.908 148.695 43.18 147.652 43.724C146.655 44.268 145.839 44.9253 145.204 45.696C144.615 46.4667 144.184 47.3053 143.912 48.212C143.64 49.1187 143.504 49.912 143.504 50.592V68H132.352V34.136H143.096V39.032H143.232C144.093 37.3093 145.317 35.904 146.904 34.816C148.491 33.728 150.327 33.184 152.412 33.184C152.865 33.184 153.296 33.2067 153.704 33.252C154.157 33.2973 154.52 33.3653 154.792 33.456L154.316 43.248ZM181.442 47.192C181.442 45.424 180.875 43.9053 179.742 42.636C178.654 41.3667 176.999 40.732 174.778 40.732C173.69 40.732 172.692 40.9133 171.786 41.276C170.879 41.5933 170.086 42.0467 169.406 42.636C168.726 43.2253 168.182 43.928 167.774 44.744C167.366 45.5147 167.139 46.3307 167.094 47.192H181.442ZM191.71 51.476C191.71 51.9293 191.71 52.3827 191.71 52.836C191.71 53.2893 191.687 53.72 191.642 54.128H167.094C167.184 55.08 167.456 55.9413 167.91 56.712C168.408 57.4827 169.02 58.1627 169.746 58.752C170.516 59.296 171.355 59.7267 172.262 60.044C173.214 60.3613 174.188 60.52 175.186 60.52C176.954 60.52 178.45 60.2027 179.674 59.568C180.898 58.888 181.895 58.0267 182.666 56.984L190.418 61.88C188.831 64.192 186.723 65.9827 184.094 67.252C181.51 68.476 178.495 69.088 175.05 69.088C172.511 69.088 170.108 68.7027 167.842 67.932C165.575 67.116 163.58 65.96 161.858 64.464C160.18 62.9227 158.843 61.0413 157.846 58.82C156.894 56.5987 156.418 54.06 156.418 51.204C156.418 48.4387 156.894 45.9453 157.846 43.724C158.798 41.4573 160.09 39.5533 161.722 38.012C163.354 36.4253 165.28 35.2013 167.502 34.34C169.723 33.4787 172.126 33.048 174.71 33.048C177.203 33.048 179.492 33.4787 181.578 34.34C183.663 35.156 185.454 36.3573 186.95 37.944C188.446 39.5307 189.602 41.4573 190.418 43.724C191.279 45.9907 191.71 48.5747 191.71 51.476ZM210.729 42.5V55.42C210.729 57.0067 211.024 58.208 211.613 59.024C212.248 59.7947 213.359 60.18 214.945 60.18C215.489 60.18 216.056 60.1347 216.645 60.044C217.28 59.9533 217.801 59.8173 218.209 59.636L218.345 67.796C217.575 68.068 216.6 68.2947 215.421 68.476C214.243 68.7027 213.064 68.816 211.885 68.816C209.619 68.816 207.715 68.544 206.173 68C204.632 67.4107 203.385 66.5947 202.433 65.552C201.527 64.464 200.869 63.1947 200.461 61.744C200.053 60.248 199.849 58.5933 199.849 56.78V42.5H194.409V34.136H199.781V25.228H210.729V34.136H218.685V42.5H210.729ZM243.918 53.244H242.49C241.266 53.244 240.02 53.312 238.75 53.448C237.526 53.5387 236.416 53.7427 235.418 54.06C234.466 54.3773 233.673 54.8533 233.038 55.488C232.404 56.0773 232.086 56.8707 232.086 57.868C232.086 58.5027 232.222 59.0467 232.494 59.5C232.812 59.9533 233.197 60.316 233.65 60.588C234.104 60.86 234.625 61.064 235.214 61.2C235.804 61.2907 236.37 61.336 236.914 61.336C239.181 61.336 240.904 60.724 242.082 59.5C243.306 58.2307 243.918 56.5307 243.918 54.4V53.244ZM223.45 38.76C225.445 36.856 227.757 35.428 230.386 34.476C233.061 33.524 235.781 33.048 238.546 33.048C241.402 33.048 243.805 33.4107 245.754 34.136C247.749 34.816 249.358 35.904 250.582 37.4C251.806 38.8507 252.69 40.7093 253.234 42.976C253.824 45.1973 254.118 47.8493 254.118 50.932V68H243.918V64.396H243.714C242.853 65.8013 241.538 66.8893 239.77 67.66C238.048 68.4307 236.166 68.816 234.126 68.816C232.766 68.816 231.361 68.6347 229.91 68.272C228.46 67.9093 227.122 67.32 225.898 66.504C224.72 65.688 223.745 64.6 222.974 63.24C222.204 61.88 221.818 60.2027 221.818 58.208C221.818 55.76 222.476 53.788 223.79 52.292C225.15 50.796 226.873 49.64 228.958 48.824C231.089 48.008 233.446 47.464 236.03 47.192C238.614 46.92 241.13 46.784 243.578 46.784V46.24C243.578 44.5627 242.989 43.3387 241.81 42.568C240.632 41.752 239.181 41.344 237.458 41.344C235.872 41.344 234.33 41.684 232.834 42.364C231.384 43.044 230.137 43.86 229.094 44.812L223.45 38.76ZM274.546 23.324C274.546 24.1853 274.365 25.0013 274.002 25.772C273.685 26.4973 273.231 27.132 272.642 27.676C272.098 28.22 271.418 28.6507 270.602 28.968C269.831 29.2853 269.015 29.444 268.154 29.444C266.341 29.444 264.822 28.8547 263.598 27.676C262.374 26.452 261.762 25.0013 261.762 23.324C261.762 22.508 261.921 21.7373 262.238 21.012C262.555 20.2413 263.009 19.584 263.598 19.04C264.187 18.496 264.867 18.0653 265.638 17.748C266.409 17.3853 267.247 17.204 268.154 17.204C269.015 17.204 269.831 17.3627 270.602 17.68C271.418 17.9973 272.098 18.428 272.642 18.972C273.231 19.516 273.685 20.1733 274.002 20.944C274.365 21.6693 274.546 22.4627 274.546 23.324ZM262.578 68V34.136H273.73V68H262.578ZM304.799 68V49.504C304.799 48.552 304.708 47.6453 304.527 46.784C304.391 45.9227 304.142 45.1747 303.779 44.54C303.416 43.86 302.895 43.3387 302.215 42.976C301.58 42.568 300.764 42.364 299.767 42.364C298.77 42.364 297.886 42.568 297.115 42.976C296.39 43.3387 295.778 43.86 295.279 44.54C294.78 45.22 294.395 46.0133 294.123 46.92C293.896 47.7813 293.783 48.688 293.783 49.64V68H282.563V34.136H293.375V38.828H293.511C293.919 38.1027 294.44 37.4 295.075 36.72C295.755 35.9947 296.526 35.3827 297.387 34.884C298.294 34.3853 299.268 33.9773 300.311 33.66C301.354 33.3427 302.464 33.184 303.643 33.184C305.91 33.184 307.836 33.592 309.423 34.408C311.01 35.224 312.279 36.2893 313.231 37.604C314.228 38.8733 314.931 40.3467 315.339 42.024C315.792 43.7013 316.019 45.3787 316.019 47.056V68H304.799ZM367.577 68H356.357L349.693 46.92H349.557L343.029 68H331.809L320.113 34.136H332.149L337.997 55.556H338.201L344.253 34.136H355.473L361.729 55.556H361.865L367.781 34.136H379.341L367.577 68ZM395.804 23.324C395.804 24.1853 395.622 25.0013 395.26 25.772C394.942 26.4973 394.489 27.132 393.9 27.676C393.356 28.22 392.676 28.6507 391.86 28.968C391.089 29.2853 390.273 29.444 389.412 29.444C387.598 29.444 386.08 28.8547 384.856 27.676C383.632 26.452 383.02 25.0013 383.02 23.324C383.02 22.508 383.178 21.7373 383.496 21.012C383.813 20.2413 384.266 19.584 384.856 19.04C385.445 18.496 386.125 18.0653 386.896 17.748C387.666 17.3853 388.505 17.204 389.412 17.204C390.273 17.204 391.089 17.3627 391.86 17.68C392.676 17.9973 393.356 18.428 393.9 18.972C394.489 19.516 394.942 20.1733 395.26 20.944C395.622 21.6693 395.804 22.4627 395.804 23.324ZM383.836 68V34.136H394.988V68H383.836ZM423.745 44.132C422.838 43.2707 421.773 42.5453 420.549 41.956C419.325 41.3667 418.033 41.072 416.673 41.072C415.63 41.072 414.655 41.276 413.749 41.684C412.887 42.092 412.457 42.7947 412.457 43.792C412.457 44.744 412.933 45.424 413.885 45.832C414.882 46.24 416.469 46.6933 418.645 47.192C419.914 47.464 421.183 47.8493 422.453 48.348C423.767 48.8467 424.946 49.504 425.989 50.32C427.031 51.136 427.87 52.1333 428.505 53.312C429.139 54.4907 429.457 55.896 429.457 57.528C429.457 59.6587 429.026 61.472 428.165 62.968C427.303 64.4187 426.17 65.5973 424.765 66.504C423.405 67.4107 421.863 68.068 420.141 68.476C418.418 68.884 416.695 69.088 414.973 69.088C412.207 69.088 409.487 68.6573 406.813 67.796C404.183 66.8893 401.985 65.5747 400.217 63.852L406.473 57.256C407.47 58.344 408.694 59.2507 410.145 59.976C411.595 60.7013 413.137 61.064 414.769 61.064C415.675 61.064 416.559 60.86 417.421 60.452C418.327 59.9987 418.781 59.228 418.781 58.14C418.781 57.0973 418.237 56.3267 417.149 55.828C416.061 55.3293 414.361 54.808 412.049 54.264C410.87 53.992 409.691 53.6293 408.513 53.176C407.334 52.7227 406.269 52.1107 405.317 51.34C404.41 50.5693 403.662 49.6173 403.073 48.484C402.483 47.3507 402.189 45.9907 402.189 44.404C402.189 42.364 402.619 40.6413 403.481 39.236C404.342 37.7853 405.453 36.6067 406.813 35.7C408.173 34.7933 409.669 34.136 411.301 33.728C412.978 33.2747 414.633 33.048 416.265 33.048C418.803 33.048 421.274 33.456 423.677 34.272C426.125 35.0427 428.187 36.2213 429.865 37.808L423.745 44.132ZM459.219 47.192C459.219 45.424 458.652 43.9053 457.519 42.636C456.431 41.3667 454.776 40.732 452.555 40.732C451.467 40.732 450.47 40.9133 449.563 41.276C448.656 41.5933 447.863 42.0467 447.183 42.636C446.503 43.2253 445.959 43.928 445.551 44.744C445.143 45.5147 444.916 46.3307 444.871 47.192H459.219ZM469.487 51.476C469.487 51.9293 469.487 52.3827 469.487 52.836C469.487 53.2893 469.464 53.72 469.419 54.128H444.871C444.962 55.08 445.234 55.9413 445.687 56.712C446.186 57.4827 446.798 58.1627 447.523 58.752C448.294 59.296 449.132 59.7267 450.039 60.044C450.991 60.3613 451.966 60.52 452.963 60.52C454.731 60.52 456.227 60.2027 457.451 59.568C458.675 58.888 459.672 58.0267 460.443 56.984L468.195 61.88C466.608 64.192 464.5 65.9827 461.871 67.252C459.287 68.476 456.272 69.088 452.827 69.088C450.288 69.088 447.886 68.7027 445.619 67.932C443.352 67.116 441.358 65.96 439.635 64.464C437.958 62.9227 436.62 61.0413 435.623 58.82C434.671 56.5987 434.195 54.06 434.195 51.204C434.195 48.4387 434.671 45.9453 435.623 43.724C436.575 41.4573 437.867 39.5533 439.499 38.012C441.131 36.4253 443.058 35.2013 445.279 34.34C447.5 33.4787 449.903 33.048 452.487 33.048C454.98 33.048 457.27 33.4787 459.355 34.34C461.44 35.156 463.231 36.3573 464.727 37.944C466.223 39.5307 467.379 41.4573 468.195 43.724C469.056 45.9907 469.487 48.5747 469.487 51.476Z" fill="#2846EB"/>
</svg>
